<svg width="37" height="38" viewBox="0 0 37 38" fill="none" xmlns="http://www.w3.org/2000/svg">
<g clip-path="url(#clip0_6013_255)">
<path d="M18.5 15.9167C17.2734 15.9167 16.097 15.4294 15.2296 14.562C14.3623 13.6947 13.875 12.5183 13.875 11.2917C13.875 10.065 14.3623 8.88865 15.2296 8.0213C16.097 7.15394 17.2734 6.66667 18.5 6.66667C19.7266 6.66667 20.903 7.15394 21.7704 8.0213C22.6377 8.88865 23.125 10.065 23.125 11.2917C23.125 12.5183 22.6377 13.6947 21.7704 14.562C20.903 15.4294 19.7266 15.9167 18.5 15.9167ZM13.8257 24.0089C14.1427 23.0184 14.7662 22.1543 15.6062 21.5412C16.4462 20.928 17.4593 20.5976 18.4992 20.5976C19.5392 20.5976 20.5523 20.928 21.3923 21.5412C22.2323 22.1543 22.8558 23.0184 23.1728 24.0089C23.275 24.4051 23.5304 24.7444 23.8829 24.9523C24.2353 25.1602 24.6559 25.2196 25.0521 25.1173C25.4483 25.0151 25.7876 24.7597 25.9955 24.4073C26.2034 24.0548 26.2628 23.6342 26.1605 23.238C24.1394 15.6114 12.856 15.6145 10.841 23.238C10.7853 23.4356 10.7697 23.6424 10.795 23.8461C10.8203 24.0498 10.8861 24.2464 10.9884 24.4244C11.0907 24.6024 11.2275 24.7581 11.3908 24.8825C11.5541 25.0069 11.7407 25.0974 11.9394 25.1487C12.1382 25.2 12.3452 25.2112 12.5483 25.1814C12.7514 25.1517 12.9466 25.0817 13.1223 24.9755C13.298 24.8693 13.4507 24.7291 13.5715 24.5631C13.6923 24.3972 13.7787 24.2087 13.8257 24.0089ZM18.5139 36.9835C17.7533 36.984 17.0191 36.7047 16.4511 36.1988L10.673 31.3333H6.16667C4.53116 31.3333 2.96265 30.6836 1.80617 29.5272C0.649701 28.3707 0 26.8022 0 25.1667V6.66667C0 5.03116 0.649701 3.46265 1.80617 2.30617C2.96265 1.1497 4.53116 0.5 6.16667 0.5L30.8333 0.5C32.4688 0.5 34.0373 1.1497 35.1938 2.30617C36.3503 3.46265 37 5.03116 37 6.66667V25.1667C37 26.8022 36.3503 28.3707 35.1938 29.5272C34.0373 30.6836 32.4688 31.3333 30.8333 31.3333H26.435L20.5042 36.2358C19.9547 36.7204 19.2465 36.9865 18.5139 36.9835ZM6.16667 3.58333C5.34892 3.58333 4.56466 3.90818 3.98642 4.48642C3.40818 5.06466 3.08333 5.84892 3.08333 6.66667V25.1667C3.08333 25.9844 3.40818 26.7687 3.98642 27.3469C4.56466 27.9251 5.34892 28.25 6.16667 28.25H11.2372C11.6005 28.25 11.9521 28.3783 12.23 28.6123L18.4676 33.8694L24.8995 28.603C25.1758 28.3748 25.5231 28.2499 25.8815 28.25H30.8333C31.6511 28.25 32.4353 27.9251 33.0136 27.3469C33.5918 26.7687 33.9167 25.9844 33.9167 25.1667V6.66667C33.9167 5.84892 33.5918 5.06466 33.0136 4.48642C32.4353 3.90818 31.6511 3.58333 30.8333 3.58333H6.16667Z" fill="#FF5300"/>
</g>
<defs>
<clipPath id="clip0_6013_255">
<rect width="37" height="37" fill="white" transform="translate(0 0.5)"/>
</clipPath>
</defs>
</svg>
