<svg width="37" height="37" viewBox="0 0 37 37" fill="none" xmlns="http://www.w3.org/2000/svg">
<g clip-path="url(#clip0_6005_152)">
<path d="M18.5 15.4167C17.2734 15.4167 16.097 14.9294 15.2296 14.062C14.3623 13.1947 13.875 12.0183 13.875 10.7917C13.875 9.56504 14.3623 8.38865 15.2296 7.5213C16.097 6.65394 17.2734 6.16667 18.5 6.16667C19.7266 6.16667 20.903 6.65394 21.7704 7.5213C22.6377 8.38865 23.125 9.56504 23.125 10.7917C23.125 12.0183 22.6377 13.1947 21.7704 14.062C20.903 14.9294 19.7266 15.4167 18.5 15.4167V15.4167ZM13.8257 23.5089C14.1427 22.5184 14.7662 21.6543 15.6062 21.0412C16.4462 20.428 17.4593 20.0976 18.4992 20.0976C19.5392 20.0976 20.5523 20.428 21.3923 21.0412C22.2323 21.6543 22.8558 22.5184 23.1728 23.5089C23.275 23.9051 23.5304 24.2444 23.8829 24.4523C24.2353 24.6602 24.6559 24.7196 25.0521 24.6173C25.4483 24.5151 25.7876 24.2597 25.9955 23.9073C26.2034 23.5548 26.2628 23.1342 26.1605 22.738C24.1394 15.1114 12.856 15.1145 10.841 22.738C10.7853 22.9356 10.7697 23.1424 10.795 23.3461C10.8203 23.5498 10.8861 23.7464 10.9884 23.9244C11.0907 24.1024 11.2275 24.2581 11.3908 24.3825C11.5541 24.5069 11.7407 24.5974 11.9394 24.6487C12.1382 24.7 12.3452 24.7112 12.5483 24.6814C12.7514 24.6517 12.9466 24.5817 13.1223 24.4755C13.298 24.3693 13.4507 24.2291 13.5715 24.0631C13.6923 23.8972 13.7787 23.7087 13.8257 23.5089V23.5089ZM18.5139 36.4835C17.7533 36.484 17.0191 36.2047 16.4511 35.6988L10.673 30.8333H6.16667C4.53116 30.8333 2.96265 30.1836 1.80617 29.0272C0.649701 27.8707 0 26.3022 0 24.6667V6.16667C0 4.53116 0.649701 2.96265 1.80617 1.80617C2.96265 0.649701 4.53116 0 6.16667 0L30.8333 0C32.4688 0 34.0373 0.649701 35.1938 1.80617C36.3503 2.96265 37 4.53116 37 6.16667V24.6667C37 26.3022 36.3503 27.8707 35.1938 29.0272C34.0373 30.1836 32.4688 30.8333 30.8333 30.8333H26.435L20.5042 35.7358C19.9547 36.2204 19.2465 36.4865 18.5139 36.4835V36.4835ZM6.16667 3.08333C5.34892 3.08333 4.56466 3.40818 3.98642 3.98642C3.40818 4.56466 3.08333 5.34892 3.08333 6.16667V24.6667C3.08333 25.4844 3.40818 26.2687 3.98642 26.8469C4.56466 27.4251 5.34892 27.75 6.16667 27.75H11.2372C11.6005 27.75 11.9521 27.8783 12.23 28.1123L18.4676 33.3694L24.8995 28.103C25.1758 27.8748 25.5231 27.7499 25.8815 27.75H30.8333C31.6511 27.75 32.4353 27.4251 33.0136 26.8469C33.5918 26.2687 33.9167 25.4844 33.9167 24.6667V6.16667C33.9167 5.34892 33.5918 4.56466 33.0136 3.98642C32.4353 3.40818 31.6511 3.08333 30.8333 3.08333H6.16667Z" fill="white"/>
</g>
<defs>
<clipPath id="clip0_6005_152">
<rect width="37" height="37" fill="white"/>
</clipPath>
</defs>
</svg>
