<svg width="34" height="34" viewBox="0 0 34 34" fill="none" xmlns="http://www.w3.org/2000/svg">
<g clip-path="url(#clip0_6005_121)">
<path d="M32.5831 15.5842H29.7498V12.7509C29.7498 12.3752 29.6005 12.0148 29.3348 11.7492C29.0692 11.4835 28.7088 11.3342 28.3331 11.3342C27.9574 11.3342 27.5971 11.4835 27.3314 11.7492C27.0657 12.0148 26.9164 12.3752 26.9164 12.7509V15.5842H24.0831C23.7074 15.5842 23.3471 15.7335 23.0814 15.9992C22.8157 16.2648 22.6665 16.6252 22.6665 17.0009C22.6665 17.3766 22.8157 17.7369 23.0814 18.0026C23.3471 18.2683 23.7074 18.4175 24.0831 18.4175H26.9164V21.2509C26.9164 21.6266 27.0657 21.9869 27.3314 22.2526C27.5971 22.5183 27.9574 22.6675 28.3331 22.6675C28.7088 22.6675 29.0692 22.5183 29.3348 22.2526C29.6005 21.9869 29.7498 21.6266 29.7498 21.2509V18.4175H32.5831C32.9588 18.4175 33.3192 18.2683 33.5848 18.0026C33.8505 17.7369 33.9998 17.3766 33.9998 17.0009C33.9998 16.6252 33.8505 16.2648 33.5848 15.9992C33.3192 15.7335 32.9588 15.5842 32.5831 15.5842Z" fill="white"/>
<path d="M12.75 16.9999C14.4311 16.9999 16.0745 16.5014 17.4723 15.5674C18.8702 14.6334 19.9596 13.3059 20.603 11.7527C21.2463 10.1995 21.4146 8.49045 21.0867 6.84161C20.7587 5.19278 19.9491 3.67822 18.7604 2.48947C17.5716 1.30073 16.0571 0.491181 14.4083 0.163207C12.7594 -0.164768 11.0503 0.00356086 9.49718 0.646906C7.944 1.29025 6.61649 2.37972 5.68249 3.77753C4.7485 5.17535 4.24998 6.81874 4.24998 8.49988C4.25224 10.7535 5.14849 12.9142 6.74206 14.5078C8.33563 16.1014 10.4963 16.9976 12.75 16.9999ZM12.75 2.83321C13.8707 2.83321 14.9663 3.16556 15.8982 3.78822C16.8301 4.41088 17.5564 5.29589 17.9853 6.33134C18.4142 7.36679 18.5264 8.50617 18.3078 9.60539C18.0891 10.7046 17.5494 11.7143 16.7569 12.5068C15.9644 13.2993 14.9547 13.839 13.8555 14.0577C12.7563 14.2763 11.6169 14.1641 10.5814 13.7352C9.546 13.3063 8.66098 12.58 8.03832 11.6481C7.41566 10.7162 7.08332 9.62064 7.08332 8.49988C7.08332 6.99699 7.68034 5.55565 8.74305 4.49294C9.80575 3.43024 11.2471 2.83321 12.75 2.83321V2.83321Z" fill="white"/>
<path d="M12.75 19.8342C9.36963 19.838 6.12879 21.1825 3.73851 23.5728C1.34824 25.963 0.00373445 29.2039 -1.52588e-05 32.5842C-1.52588e-05 32.96 0.14924 33.3203 0.414917 33.586C0.680593 33.8516 1.04093 34.0009 1.41665 34.0009C1.79237 34.0009 2.15271 33.8516 2.41839 33.586C2.68406 33.3203 2.83332 32.96 2.83332 32.5842C2.83332 29.9542 3.87811 27.4318 5.73784 25.5721C7.59758 23.7124 10.1199 22.6676 12.75 22.6676C15.38 22.6676 17.9024 23.7124 19.7621 25.5721C21.6219 27.4318 22.6667 29.9542 22.6667 32.5842C22.6667 32.96 22.8159 33.3203 23.0816 33.586C23.3473 33.8516 23.7076 34.0009 24.0833 34.0009C24.459 34.0009 24.8194 33.8516 25.0851 33.586C25.3507 33.3203 25.5 32.96 25.5 32.5842C25.4962 29.2039 24.1517 25.963 21.7615 23.5728C19.3712 21.1825 16.1303 19.838 12.75 19.8342V19.8342Z" fill="white"/>
</g>
<defs>
<clipPath id="clip0_6005_121">
<rect width="34" height="34" fill="white"/>
</clipPath>
</defs>
</svg>
