<svg width="34" height="35" viewBox="0 0 34 35" fill="none" xmlns="http://www.w3.org/2000/svg">
<g clip-path="url(#clip0_6013_260)">
<path d="M32.5831 16.0842H29.7498V13.2509C29.7498 12.8752 29.6005 12.5148 29.3348 12.2492C29.0692 11.9835 28.7088 11.8342 28.3331 11.8342C27.9574 11.8342 27.597 11.9835 27.3314 12.2492C27.0657 12.5148 26.9164 12.8752 26.9164 13.2509V16.0842H24.0831C23.7074 16.0842 23.347 16.2335 23.0814 16.4992C22.8157 16.7648 22.6664 17.1252 22.6664 17.5009C22.6664 17.8766 22.8157 18.2369 23.0814 18.5026C23.347 18.7683 23.7074 18.9175 24.0831 18.9175H26.9164V21.7509C26.9164 22.1266 27.0657 22.4869 27.3314 22.7526C27.597 23.0183 27.9574 23.1675 28.3331 23.1675C28.7088 23.1675 29.0692 23.0183 29.3348 22.7526C29.6005 22.4869 29.7498 22.1266 29.7498 21.7509V18.9175H32.5831C32.9588 18.9175 33.3191 18.7683 33.5848 18.5026C33.8505 18.2369 33.9998 17.8766 33.9998 17.5009C33.9998 17.1252 33.8505 16.7648 33.5848 16.4992C33.3191 16.2335 32.9588 16.0842 32.5831 16.0842Z" fill="#FF5300"/>
<path d="M12.75 17.4999C14.4311 17.4999 16.0745 17.0014 17.4723 16.0674C18.8702 15.1334 19.9596 13.8059 20.603 12.2527C21.2463 10.6995 21.4146 8.99045 21.0867 7.34161C20.7587 5.69278 19.9492 4.17822 18.7604 2.98947C17.5717 1.80073 16.0571 0.991181 14.4083 0.663207C12.7594 0.335232 11.0504 0.503561 9.49719 1.14691C7.94402 1.79025 6.6165 2.87972 5.68251 4.27753C4.74852 5.67535 4.25 7.31874 4.25 8.99988C4.25225 11.2535 5.14851 13.4142 6.74208 15.0078C8.33565 16.6014 10.4964 17.4976 12.75 17.4999ZM12.75 3.33321C13.8708 3.33321 14.9664 3.66556 15.8982 4.28822C16.8301 4.91088 17.5564 5.79589 17.9853 6.83134C18.4142 7.86679 18.5264 9.00617 18.3078 10.1054C18.0891 11.2046 17.5494 12.2143 16.7569 13.0068C15.9644 13.7993 14.9547 14.339 13.8555 14.5577C12.7563 14.7763 11.6169 14.6641 10.5815 14.2352C9.54601 13.8063 8.661 13.08 8.03834 12.1481C7.41568 11.2162 7.08333 10.1206 7.08333 8.99988C7.08333 7.49699 7.68036 6.05565 8.74306 4.99294C9.80577 3.93024 11.2471 3.33321 12.75 3.33321Z" fill="#FF5300"/>
<path d="M12.75 20.3342C9.36964 20.338 6.12881 21.6825 3.73853 24.0728C1.34825 26.463 0.00374971 29.7039 0 33.0842C0 33.46 0.149256 33.8203 0.414932 34.086C0.680609 34.3516 1.04094 34.5009 1.41667 34.5009C1.79239 34.5009 2.15272 34.3516 2.4184 34.086C2.68408 33.8203 2.83333 33.46 2.83333 33.0842C2.83333 30.4542 3.87812 27.9318 5.73786 26.0721C7.59759 24.2124 10.1199 23.1676 12.75 23.1676C15.3801 23.1676 17.9024 24.2124 19.7621 26.0721C21.6219 27.9318 22.6667 30.4542 22.6667 33.0842C22.6667 33.46 22.8159 33.8203 23.0816 34.086C23.3473 34.3516 23.7076 34.5009 24.0833 34.5009C24.4591 34.5009 24.8194 34.3516 25.0851 34.086C25.3507 33.8203 25.5 33.46 25.5 33.0842C25.4963 29.7039 24.1517 26.463 21.7615 24.0728C19.3712 21.6825 16.1304 20.338 12.75 20.3342Z" fill="#FF5300"/>
</g>
<defs>
<clipPath id="clip0_6013_260">
<rect width="34" height="34" fill="white" transform="translate(0 0.5)"/>
</clipPath>
</defs>
</svg>
