<svg width="36" height="36" viewBox="0 0 36 36" fill="none" xmlns="http://www.w3.org/2000/svg">
<g clip-path="url(#clip0_6005_163)">
<path d="M15.7498 25.4999C15.3553 25.5002 14.9647 25.4227 14.6002 25.2719C14.2358 25.121 13.9046 24.8998 13.6258 24.6209L7.94978 19.0724C7.66533 18.7939 7.50316 18.4138 7.49894 18.0158C7.49472 17.6177 7.6488 17.2343 7.92728 16.9499C8.20575 16.6654 8.58582 16.5032 8.98387 16.499C9.38191 16.4948 9.76533 16.6489 10.0498 16.9274L15.7393 22.4879L25.9483 12.4379C26.2362 12.1845 26.6101 12.0511 26.9934 12.065C27.3766 12.0788 27.7399 12.2389 28.0088 12.5124C28.2776 12.7858 28.4315 13.1519 28.4389 13.5353C28.4462 13.9187 28.3064 14.2903 28.0483 14.5739L17.8588 24.6344C17.5814 24.9102 17.2524 25.1287 16.8905 25.2772C16.5286 25.4257 16.141 25.5014 15.7498 25.4999ZM35.9998 28.4999V18.5099C36.0557 13.886 34.3604 9.41219 31.2543 5.98661C28.1481 2.56102 23.861 0.437307 19.2538 0.0418503C16.6823 -0.138063 14.1021 0.23646 11.6878 1.14008C9.27358 2.0437 7.08158 3.45533 5.26015 5.27947C3.43871 7.10361 2.03033 9.2977 1.13029 11.7133C0.230247 14.1289 -0.140451 16.7096 0.0432747 19.2809C0.706275 28.8119 9.12278 35.9999 19.6243 35.9999H28.4998C30.4882 35.9975 32.3944 35.2065 33.8005 33.8005C35.2065 32.3945 35.9974 30.4882 35.9998 28.4999ZM19.0498 3.03585C22.8995 3.37641 26.4777 5.16122 29.0654 8.03168C31.6532 10.9021 33.0588 14.6456 32.9998 18.5099V28.4999C32.9998 29.6933 32.5257 30.8379 31.6818 31.6818C30.8378 32.5257 29.6933 32.9999 28.4998 32.9999H19.6243C10.5733 32.9999 3.59978 27.1499 3.03728 19.0739C2.8896 17.0167 3.16774 14.9512 3.8543 13.0065C4.54086 11.0617 5.6211 9.27935 7.02753 7.77086C8.43396 6.26237 10.1364 5.06012 12.0284 4.23922C13.9204 3.41832 15.9614 2.99641 18.0238 2.99985C18.3643 2.99985 18.7078 3.01335 19.0498 3.03585Z" fill="#FF5300"/>
</g>
<defs>
<clipPath id="clip0_6005_163">
<rect width="36" height="36" fill="white"/>
</clipPath>
</defs>
</svg>
